<svg xmlns="http://www.w3.org/2000/svg" xmlns:xlink="http://www.w3.org/1999/xlink" version="1.1" id="Layer_1" x="0px" y="0px" width="100px" height="100px" viewBox="0 0 100 100" enable-background="new 0 0 100 100" xml:space="preserve">
<path fill="#000000" d="M75,5h-3c-2.6,0-5.1,1.3-6.5,3.6L59.7,18H40.3l-5.9-9.4C33.1,6.3,30.6,5,28,5h-3c-4.2,0-7.6,3.4-7.6,7.6v65  c0,6.9,4,13.1,10.3,15.9l0.7,0.3c2,0.8,4.2,1.2,6.4,1.2h30.3c2.2,0,4.4-0.4,6.4-1.2l0.7-0.3c6.3-2.8,10.3-9,10.3-15.9l0-64.9  C82.6,8.5,79.2,5,75,5z M68.6,10.5c0.7-1.2,2-1.9,3.4-1.9h3c2.2,0,4,1.8,4,4v12.3c-3.2-4.2-8.2-6.9-13.8-6.9h-1.3L68.6,10.5z   M73.1,49.2c-1-0.7-2.3-1-3.6-1s-2.5,0.4-3.6,1c0,0-3.7,2.5-5.5,3.7l-1.9-10.2c2.2-2.6,5.4-4.2,8.9-4.2c4.8,0,9.1,3,10.8,7.5  c0.5,1.3,0.7,2.7,0.7,4.1v3.1C77.6,52.4,73.2,49.2,73.1,49.2z M73.2,55.2c0,2-1.6,3.6-3.6,3.6c-2,0-3.6-1.6-3.6-3.6s1.6-3.6,3.6-3.6  C71.5,51.6,73.2,53.2,73.2,55.2z M60.2,71.5L56,78.4V48.2L60.2,71.5z M57.2,35.4c2-3.8,5.9-6.2,10.2-6.2c6.2,0,11.3,5,11.5,11.2  C76.2,37,72,35,67.5,35c-3.6,0-7,1.3-9.7,3.5L57.2,35.4z M65.2,21.6c5.5,0,10.2,3.2,12.4,7.9c-2.7-2.5-6.3-4-10.2-4  c-4.3,0-8.3,1.8-11.1,4.9L56,28c-0.1-0.9-0.9-1.5-1.8-1.5H46c-0.9,0-1.6,0.6-1.8,1.5l-0.4,2.4c-2.8-3.1-6.8-4.9-11.1-4.9  c-3.9,0-7.5,1.5-10.2,4c2.2-4.6,7-7.9,12.4-7.9H65.2z M47.8,84.4V30.1h4.5v54.3H47.8z M39.8,71.4L44,48.2v30L39.8,71.4z M43.4,84.4  h-3.9v-3.6h1.7L43.4,84.4z M21,12.6c0-2.2,1.7-4,4-4h3c1.4,0,2.7,0.7,3.4,1.9l4.7,7.5h-1.3c-5.6,0-10.6,2.7-13.8,6.9V12.6z   M32.5,29.1c4.3,0,8.2,2.4,10.2,6.2l-0.5,3.2c-2.7-2.2-6.1-3.5-9.7-3.5c-4.5,0-8.7,2-11.5,5.3C21.2,34.1,26.3,29.1,32.5,29.1z   M35.9,91.6h-1.2c-1.8,0-3.5-0.4-5.2-1c-0.9-0.7-1.6-1.6-1.9-2.6h8.3V91.6z M35.9,84.4h-8.3c0.7-2.1,2.7-3.6,5.1-3.6h3.2L35.9,84.4z   M32.7,77.3c-4.9,0-8.9,4-8.9,8.9C22,83.8,21,80.9,21,77.8v-8.2c2.8,3.3,6.9,5.4,11.5,5.4c1.6,0,3.2-0.2,4.7-0.7l1.8,3H32.7z   M26.9,61c1,0.7,2.3,1,3.6,1s2.5-0.4,3.6-1c0,0,2.7-1.9,4.6-3.1l-2.3,12.8c-1.2,0.4-2.5,0.7-3.8,0.7c-6.4,0-11.5-5.2-11.5-11.5V57  C22.7,58.1,26.9,61,26.9,61z M26.8,55.2c0-2,1.6-3.6,3.6-3.6s3.6,1.6,3.6,3.6s-1.6,3.6-3.6,3.6S26.8,57.2,26.8,55.2z M33.9,49.3  c-0.9-0.7-2.1-1.1-3.5-1.1c-1.3,0-2.5,0.4-3.6,1c0,0-4.4,3-5.9,4v-3.1c0-1.4,0.3-2.8,0.7-4.1c1.7-4.5,6-7.5,10.8-7.5  c3.4,0,6.7,1.6,8.9,4.2l-1.9,10.3C37.7,51.9,33.9,49.3,33.9,49.3z M39.5,88h8.7v3.6c-4.6,0-8.7,0-8.7,0V88z M60.4,91.6  c0,0-4,0-8.6,0V88h8.6V91.6z M60.5,84.4h-3.9l2.2-3.6h1.7V84.4z M70.5,90.6c-1.6,0.7-3.4,1-5.2,1h-1.2V88h8.3  C72,89,71.4,89.9,70.5,90.6z M64.1,84.4v-3.6h3.2c2.3,0,4.3,1.5,5.1,3.6H64.1z M79,77.8c0,3.1-1,6-2.8,8.3c0-4.9-4-8.9-8.9-8.9H61  l1.8-3c1.5,0.5,3.1,0.7,4.7,0.7c4.6,0,8.8-2.1,11.5-5.4V77.8z M79.1,59.7c0,6.4-5.2,11.5-11.5,11.5c-1.4,0.1-2.7-0.1-3.9-0.6  l-2.3-12.8c1.9,1.3,4.6,3.1,4.6,3.1c1.1,0.7,2.3,1,3.6,1c1.3,0,2.5-0.4,3.6-1c0,0,4.4-3,5.9-4V59.7z"/>
</svg>